<?xml version="1.0" encoding="utf-8"?>
<!-- Generator: Adobe Illustrator 22.1.0, SVG Export Plug-In . SVG Version: 6.00 Build 0)  -->
<svg version="1.1" xmlns="http://www.w3.org/2000/svg" xmlns:xlink="http://www.w3.org/1999/xlink" x="0px" y="0px"
	 viewBox="0 0 120 120" style="enable-background:new 0 0 120 120;" xml:space="preserve">
<style type="text/css">
	.st0{fill:#CCCCCC;}
	.st1{fill:#303640;}
	.st2{fill:none;stroke:#41506B;stroke-miterlimit:10;}
	.st3{fill:none;stroke:#6B6B6B;stroke-miterlimit:10;}
	.st4{fill:#354259;}
	.st5{fill:#25334A;}
	.st6{fill:#B3D1DA;}
	.st7{fill:#F2F2F2;}
	.st8{fill:#7C9BBE;}
	.st9{fill:#D4B898;}
	.st10{fill:none;stroke:#65A1B3;stroke-linecap:round;stroke-linejoin:round;stroke-miterlimit:10;}
	.st11{clip-path:url(#SVGID_4_);fill:#5881AC;}
	.st12{fill:#FFF1E5;}
	.st13{fill:#6D8BBE;}
	.st14{fill:#5D77A2;}
	.st15{clip-path:url(#SVGID_6_);fill:#5881AC;}
</style>
<g id="Ebene_2">
</g>
<g id="Ebene_1">
	<g>
		<path class="st0" d="M103,31.5H19c-2.2,0-4,1.8-4,4v51.1c0,2.2,1.8,4,4,4h84c2.2,0,4-1.8,4-4V35.5C107,33.2,105.2,31.5,103,31.5z
			 M76.1,69H45.9V51h30.2L76.1,69L76.1,69z"/>
		<path class="st0" d="M86.9,78.3H35.1c-1.4,0-2.5,0.9-2.9,2.2l-2.5,9.3c-0.3,1.3,0.6,2.5,1.9,2.5h58.8c1.3,0,2.3-1.3,1.9-2.5
			l-2.5-9.3C89.4,79.2,88.2,78.3,86.9,78.3z"/>
		<g id="Layer_2_1_">
			<g>
				<g>
					<g>
						<defs>
							<circle id="SVGID_1_" cx="60" cy="60" r="64"/>
						</defs>
						<clipPath id="SVGID_2_">
							<use xlink:href="#SVGID_1_"  style="overflow:visible;"/>
						</clipPath>
					</g>
				</g>
				<g>
					<g>
						<circle class="st1" cx="84.1" cy="59.2" r="16.6"/>
						<g>
							<circle class="st2" cx="84.1" cy="59.2" r="14"/>
							<circle class="st2" cx="84.1" cy="59.2" r="11.1"/>
							<circle class="st3" cx="84.1" cy="59.2" r="8.1"/>
							<circle class="st3" cx="84.1" cy="59.2" r="5.1"/>
							<circle class="st3" cx="84.1" cy="59.2" r="2.1"/>
						</g>
					</g>
					<g>
						<circle class="st1" cx="36.2" cy="59.2" r="16.6"/>
						<g>
							<circle class="st2" cx="36.2" cy="59.2" r="14"/>
							<circle class="st2" cx="36.2" cy="59.2" r="11.1"/>
							<circle class="st3" cx="36.2" cy="59.2" r="8.1"/>
							<circle class="st3" cx="36.2" cy="59.2" r="5.1"/>
							<circle class="st3" cx="36.2" cy="59.2" r="2.1"/>
						</g>
					</g>
				</g>
				<path class="st4" d="M102,30.5H18c-2.2,0-4,1.8-4,4v51.1c0,2.2,1.8,4,4,4h84c2.2,0,4-1.8,4-4V34.5C106,32.2,104.2,30.5,102,30.5
					z M75.1,68H44.9V50h30.2L75.1,68L75.1,68z"/>
				<path class="st5" d="M85.9,77.3H34.1c-1.4,0-2.5,0.9-2.9,2.2l-2.5,9.3c-0.3,1.3,0.6,2.5,1.9,2.5h58.8c1.3,0,2.3-1.3,1.9-2.5
					l-2.5-9.3C88.4,78.2,87.2,77.3,85.9,77.3z"/>
				<g>
					<circle class="st6" cx="84.1" cy="86.3" r="2"/>
					<circle class="st6" cx="75.1" cy="82.3" r="2"/>
				</g>
				<g>
					<circle class="st6" cx="35.3" cy="86.3" r="2"/>
					<circle class="st6" cx="44.3" cy="82.3" r="2"/>
				</g>
				<path class="st7" d="M98.4,37H21.6c-0.6,0-1,0.4-1,1v35c0,0.6,0.4,1,1,1h76.8c0.6,0,1-0.4,1-1V38C99.4,37.4,98.9,37,98.4,37z
					 M75.1,68H44.9V50h30.2L75.1,68L75.1,68z"/>
				<path class="st8" d="M26.8,59c0,5,4,9,9,9h9V50h-9C30.9,50,26.8,54,26.8,59z M84.1,50h-9.1V68h9.1c5,0,9-4,9-9S89.1,50,84.1,50z
					"/>
				<path class="st9" d="M99.4,71V73c0,0.6-0.4,1-1,1H21.6c-0.6,0-1-0.4-1-1V71H99.4z"/>
				<line class="st10" x1="35" y1="45" x2="84" y2="45"/>
				<line class="st10" x1="35" y1="41" x2="84" y2="41"/>
				<g>
					<g>
						<defs>
							<path id="SVGID_3_" d="M26.8,59c0,5,4,9,9,9h9V50h-9C30.9,50,26.8,54,26.8,59z"/>
						</defs>
						<clipPath id="SVGID_4_">
							<use xlink:href="#SVGID_3_"  style="overflow:visible;"/>
						</clipPath>
						<polygon class="st11" points="30.9,60 32.9,62.1 32.2,63.2 37.5,68.5 45.3,68.5 45.3,60.4 40.2,55.2 38.7,55.7 37,54 						
							"/>
					</g>
				</g>
				<path class="st12" d="M40.8,58.2h-0.4c-0.1-0.5-0.3-0.9-0.5-1.3l0.3-0.3c0.4-0.4,0.4-1,0-1.4s-1-0.4-1.4,0l-0.3,0.3
					c-0.4-0.2-0.8-0.4-1.3-0.5v-0.4c0-0.6-0.4-1-1-1s-1,0.4-1,1V55c-0.5,0.1-0.9,0.3-1.3,0.5l-0.3-0.3c-0.4-0.4-1-0.4-1.4,0
					s-0.4,1,0,1.4l0.3,0.3c-0.2,0.4-0.4,0.8-0.5,1.3h-0.4c-0.6,0-1,0.4-1,1s0.4,1,1,1h0.4c0.1,0.5,0.3,0.9,0.5,1.3l-0.3,0.3
					c-0.4,0.4-0.4,1,0,1.4c0.2,0.2,0.5,0.3,0.7,0.3s0.5-0.1,0.7-0.3l0.3-0.3c0.4,0.2,0.8,0.4,1.3,0.5v0.4c0,0.6,0.4,1,1,1s1-0.4,1-1
					v-0.4c0.5-0.1,0.9-0.3,1.3-0.5l0.3,0.3c0.2,0.2,0.5,0.3,0.7,0.3s0.5-0.1,0.7-0.3c0.4-0.4,0.4-1,0-1.4l-0.3-0.3
					c0.2-0.4,0.4-0.8,0.5-1.3h0.4c0.6,0,1-0.4,1-1S41.4,58.2,40.8,58.2z"/>
				<g>
					<g>
						<circle class="st13" cx="102" cy="34.7" r="1"/>
					</g>
					<g>
						<circle class="st13" cx="18" cy="34.7" r="1"/>
					</g>
				</g>
				<g>
					<g>
						<circle class="st14" cx="102" cy="85.3" r="1"/>
					</g>
					<g>
						<circle class="st14" cx="18" cy="85.3" r="1"/>
					</g>
				</g>
				<g>
					<g>
						<defs>
							<path id="SVGID_5_" d="M84.1,50h-9.1V68h9.1c5,0,9-4,9-9S89.1,50,84.1,50z"/>
						</defs>
						<clipPath id="SVGID_6_">
							<use xlink:href="#SVGID_5_"  style="overflow:visible;"/>
						</clipPath>
						<polygon class="st15" points="78.8,60 80.8,62.1 80.1,63.2 85.4,68.5 93.2,68.5 93.2,60.4 88.1,55.2 86.6,55.7 84.9,54 						
							"/>
					</g>
				</g>
				<path class="st12" d="M88.7,58.2h-0.4c-0.1-0.5-0.3-0.9-0.5-1.3l0.3-0.3c0.4-0.4,0.4-1,0-1.4s-1-0.4-1.4,0l-0.3,0.3
					c-0.4-0.2-0.8-0.4-1.3-0.5v-0.4c0-0.6-0.4-1-1-1s-1,0.4-1,1V55c-0.5,0.1-0.9,0.3-1.3,0.5l-0.3-0.3c-0.4-0.4-1-0.4-1.4,0
					s-0.4,1,0,1.4l0.3,0.3c-0.2,0.4-0.4,0.8-0.5,1.3h-0.4c-0.6,0-1,0.4-1,1s0.4,1,1,1h0.4c0.1,0.5,0.3,0.9,0.5,1.3l-0.3,0.3
					c-0.4,0.4-0.4,1,0,1.4c0.2,0.2,0.5,0.3,0.7,0.3s0.5-0.1,0.7-0.3l0.3-0.3c0.4,0.2,0.8,0.4,1.3,0.5v0.4c0,0.6,0.4,1,1,1s1-0.4,1-1
					v-0.4c0.5-0.1,0.9-0.3,1.3-0.5l0.3,0.3c0.2,0.2,0.5,0.3,0.7,0.3s0.5-0.1,0.7-0.3c0.4-0.4,0.4-1,0-1.4l-0.3-0.3
					c0.2-0.4,0.4-0.8,0.5-1.3h0.4c0.6,0,1-0.4,1-1S89.3,58.2,88.7,58.2z"/>
			</g>
		</g>
	</g>
</g>
</svg>
