<?xml version="1.0" encoding="utf-8"?>
<!-- Generator: Adobe Illustrator 22.1.0, SVG Export Plug-In . SVG Version: 6.00 Build 0)  -->
<svg version="1.1" xmlns="http://www.w3.org/2000/svg" xmlns:xlink="http://www.w3.org/1999/xlink" x="0px" y="0px"
	 viewBox="0 0 96 64" style="enable-background:new 0 0 96 64;" xml:space="preserve">
<style type="text/css">
	.st0{fill:#CCCCCC;}
	.st1{fill:#303640;}
	.st2{fill:none;stroke:#41506B;stroke-miterlimit:10;}
	.st3{fill:none;stroke:#6B6B6B;stroke-miterlimit:10;}
	.st4{fill:#354259;}
	.st5{fill:#25334A;}
	.st6{fill:#B3D1DA;}
	.st7{fill:#F2F2F2;}
	.st8{fill:#7C9BBE;}
	.st9{fill:#D4B898;}
	.st10{fill:none;stroke:#65A1B3;stroke-linecap:round;stroke-linejoin:round;stroke-miterlimit:10;}
	.st11{clip-path:url(#SVGID_4_);fill:#5881AC;}
	.st12{fill:#FFF1E5;}
	.st13{fill:#6D8BBE;}
	.st14{fill:#5D77A2;}
	.st15{clip-path:url(#SVGID_6_);fill:#5881AC;}
</style>
<g id="Ebene_2">
</g>
<g id="Ebene_1">
	<g>
		<path class="st0" d="M91,2.5H7c-2.2,0-4,1.8-4,4v51.1c0,2.2,1.8,4,4,4h84c2.2,0,4-1.8,4-4V6.5C95,4.2,93.2,2.5,91,2.5z M64.1,40
			H33.9V22h30.2L64.1,40L64.1,40z"/>
		<path class="st0" d="M74.9,49.3H23.1c-1.4,0-2.5,0.9-2.9,2.2l-2.5,9.3c-0.3,1.3,0.6,2.5,1.9,2.5h58.8c1.3,0,2.3-1.3,1.9-2.5
			l-2.5-9.3C77.4,50.2,76.2,49.3,74.9,49.3z"/>
		<g id="Layer_2_1_">
			<g>
				<g>
					<g>
						<defs>
							<circle id="SVGID_1_" cx="48" cy="31" r="64"/>
						</defs>
						<clipPath id="SVGID_2_">
							<use xlink:href="#SVGID_1_"  style="overflow:visible;"/>
						</clipPath>
					</g>
				</g>
				<g>
					<g>
						<circle class="st1" cx="72.1" cy="30.2" r="16.6"/>
						<g>
							<circle class="st2" cx="72.1" cy="30.2" r="14"/>
							<circle class="st2" cx="72.1" cy="30.2" r="11.1"/>
							<circle class="st3" cx="72.1" cy="30.2" r="8.1"/>
							<circle class="st3" cx="72.1" cy="30.2" r="5.1"/>
							<circle class="st3" cx="72.1" cy="30.2" r="2.1"/>
						</g>
					</g>
					<g>
						<circle class="st1" cx="24.2" cy="30.2" r="16.6"/>
						<g>
							<circle class="st2" cx="24.2" cy="30.2" r="14"/>
							<circle class="st2" cx="24.2" cy="30.2" r="11.1"/>
							<circle class="st3" cx="24.2" cy="30.2" r="8.1"/>
							<circle class="st3" cx="24.2" cy="30.2" r="5.1"/>
							<circle class="st3" cx="24.2" cy="30.2" r="2.1"/>
						</g>
					</g>
				</g>
				<path class="st4" d="M90,1.5H6c-2.2,0-4,1.8-4,4v51.1c0,2.2,1.8,4,4,4h84c2.2,0,4-1.8,4-4V5.5C94,3.2,92.2,1.5,90,1.5z M63.1,39
					H32.9V21h30.2L63.1,39L63.1,39z"/>
				<path class="st5" d="M73.9,48.3H22.1c-1.4,0-2.5,0.9-2.9,2.2l-2.5,9.3c-0.3,1.3,0.6,2.5,1.9,2.5h58.8c1.3,0,2.3-1.3,1.9-2.5
					l-2.5-9.3C76.4,49.2,75.2,48.3,73.9,48.3z"/>
				<g>
					<circle class="st6" cx="72.1" cy="57.3" r="2"/>
					<circle class="st6" cx="63.1" cy="53.3" r="2"/>
				</g>
				<g>
					<circle class="st6" cx="23.3" cy="57.3" r="2"/>
					<circle class="st6" cx="32.3" cy="53.3" r="2"/>
				</g>
				<path class="st7" d="M86.4,8H9.6c-0.6,0-1,0.4-1,1v35c0,0.6,0.4,1,1,1h76.8c0.6,0,1-0.4,1-1V9C87.4,8.4,86.9,8,86.4,8z M63.1,39
					H32.9V21h30.2L63.1,39L63.1,39z"/>
				<path class="st8" d="M14.8,30c0,5,4,9,9,9h9V21h-9C18.9,21,14.8,25,14.8,30z M72.1,21h-9.1V39h9.1c5,0,9-4,9-9S77.1,21,72.1,21z
					"/>
				<path class="st9" d="M87.4,42V44c0,0.6-0.4,1-1,1H9.6c-0.6,0-1-0.4-1-1V42H87.4z"/>
				<line class="st10" x1="23" y1="16" x2="72" y2="16"/>
				<line class="st10" x1="23" y1="12" x2="72" y2="12"/>
				<g>
					<g>
						<defs>
							<path id="SVGID_3_" d="M14.8,30c0,5,4,9,9,9h9V21h-9C18.9,21,14.8,25,14.8,30z"/>
						</defs>
						<clipPath id="SVGID_4_">
							<use xlink:href="#SVGID_3_"  style="overflow:visible;"/>
						</clipPath>
						<polygon class="st11" points="18.9,31 20.9,33.1 20.2,34.2 25.5,39.5 33.3,39.5 33.3,31.4 28.2,26.2 26.7,26.7 25,25 						
							"/>
					</g>
				</g>
				<path class="st12" d="M28.8,29.2h-0.4c-0.1-0.5-0.3-0.9-0.5-1.3l0.3-0.3c0.4-0.4,0.4-1,0-1.4s-1-0.4-1.4,0l-0.3,0.3
					c-0.4-0.2-0.8-0.4-1.3-0.5v-0.4c0-0.6-0.4-1-1-1s-1,0.4-1,1V26c-0.5,0.1-0.9,0.3-1.3,0.5l-0.3-0.3c-0.4-0.4-1-0.4-1.4,0
					s-0.4,1,0,1.4l0.3,0.3c-0.2,0.4-0.4,0.8-0.5,1.3h-0.4c-0.6,0-1,0.4-1,1s0.4,1,1,1h0.4c0.1,0.5,0.3,0.9,0.5,1.3l-0.3,0.3
					c-0.4,0.4-0.4,1,0,1.4c0.2,0.2,0.5,0.3,0.7,0.3s0.5-0.1,0.7-0.3l0.3-0.3c0.4,0.2,0.8,0.4,1.3,0.5v0.4c0,0.6,0.4,1,1,1s1-0.4,1-1
					v-0.4c0.5-0.1,0.9-0.3,1.3-0.5l0.3,0.3c0.2,0.2,0.5,0.3,0.7,0.3s0.5-0.1,0.7-0.3c0.4-0.4,0.4-1,0-1.4l-0.3-0.3
					c0.2-0.4,0.4-0.8,0.5-1.3h0.4c0.6,0,1-0.4,1-1S29.4,29.2,28.8,29.2z"/>
				<g>
					<g>
						<circle class="st13" cx="90" cy="5.7" r="1"/>
					</g>
					<g>
						<circle class="st13" cx="6" cy="5.7" r="1"/>
					</g>
				</g>
				<g>
					<g>
						<circle class="st14" cx="90" cy="56.3" r="1"/>
					</g>
					<g>
						<circle class="st14" cx="6" cy="56.3" r="1"/>
					</g>
				</g>
				<g>
					<g>
						<defs>
							<path id="SVGID_5_" d="M72.1,21h-9.1V39h9.1c5,0,9-4,9-9S77.1,21,72.1,21z"/>
						</defs>
						<clipPath id="SVGID_6_">
							<use xlink:href="#SVGID_5_"  style="overflow:visible;"/>
						</clipPath>
						<polygon class="st15" points="66.8,31 68.8,33.1 68.1,34.2 73.4,39.5 81.2,39.5 81.2,31.4 76.1,26.2 74.6,26.7 72.9,25 						
							"/>
					</g>
				</g>
				<path class="st12" d="M76.7,29.2h-0.4c-0.1-0.5-0.3-0.9-0.5-1.3l0.3-0.3c0.4-0.4,0.4-1,0-1.4s-1-0.4-1.4,0l-0.3,0.3
					c-0.4-0.2-0.8-0.4-1.3-0.5v-0.4c0-0.6-0.4-1-1-1s-1,0.4-1,1V26c-0.5,0.1-0.9,0.3-1.3,0.5l-0.3-0.3c-0.4-0.4-1-0.4-1.4,0
					s-0.4,1,0,1.4l0.3,0.3c-0.2,0.4-0.4,0.8-0.5,1.3h-0.4c-0.6,0-1,0.4-1,1s0.4,1,1,1h0.4c0.1,0.5,0.3,0.9,0.5,1.3l-0.3,0.3
					c-0.4,0.4-0.4,1,0,1.4c0.2,0.2,0.5,0.3,0.7,0.3s0.5-0.1,0.7-0.3l0.3-0.3c0.4,0.2,0.8,0.4,1.3,0.5v0.4c0,0.6,0.4,1,1,1s1-0.4,1-1
					v-0.4c0.5-0.1,0.9-0.3,1.3-0.5l0.3,0.3c0.2,0.2,0.5,0.3,0.7,0.3s0.5-0.1,0.7-0.3c0.4-0.4,0.4-1,0-1.4l-0.3-0.3
					c0.2-0.4,0.4-0.8,0.5-1.3h0.4c0.6,0,1-0.4,1-1S77.3,29.2,76.7,29.2z"/>
			</g>
		</g>
	</g>
</g>
</svg>
